<svg width="17" height="17" viewBox="0 0 17 17" fill="none" xmlns="http://www.w3.org/2000/svg">
<path d="M13.0725 14.8397V15.2882H1.64895V5.97219H13.0725V6.68614H14.7214V3.42428C14.723 3.19895 14.6814 2.97554 14.599 2.76705C14.5167 2.55856 14.3953 2.36915 14.2419 2.20981C14.0885 2.05047 13.9061 1.92439 13.7053 1.83889C13.5046 1.7534 13.2895 1.71019 13.0725 1.71179H12.2681V0H10.6191V1.71179H4.10161V0H2.45335V1.71179H1.64824C1.43131 1.71019 1.21626 1.7534 1.01554 1.8389C0.814826 1.92441 0.632453 2.0505 0.479082 2.20985C0.325711 2.3692 0.204368 2.55862 0.122121 2.76711C0.0398731 2.97559 -0.00160684 3.19898 2.09604e-05 3.42428V15.2882C-0.00169972 15.5134 0.0397315 15.7369 0.121955 15.9453C0.204178 16.1538 0.325517 16.3432 0.478916 16.5026C0.632315 16.6619 0.814705 16.7879 1.01546 16.8733C1.21621 16.9587 1.43131 17.0017 1.64824 16.9999H13.0718C13.2888 17.0016 13.5039 16.9585 13.7046 16.8731C13.9054 16.7877 14.0877 16.6617 14.2412 16.5024C14.3946 16.3431 14.516 16.1537 14.5984 15.9453C14.6807 15.7368 14.7223 15.5135 14.7208 15.2882V14.8397H13.0725Z" fill="#E42313"/>
<path d="M6.83917 12.3524L8.03319 11.0898H3.98734V10.1428H8.03319L6.83917 8.88014L7.49055 8.20361L9.81405 10.6159L7.49055 13.0283L6.83917 12.3524Z" fill="#E42313"/>
<path d="M3.62084 10.1245H2.61652V11.0503H3.62084V10.1245Z" fill="#E42313"/>
<path d="M13.8395 8.9624H14.2325L14.0666 9.38963C14.1473 9.41379 14.2247 9.44845 14.2971 9.49275L14.5011 8.9624H14.8948L14.5827 9.77451C14.6752 9.90927 14.7305 10.0678 14.7425 10.2328H14.4025L13.9109 11.4997C13.9851 11.471 14.0506 11.4223 14.1006 11.3585C14.1627 11.2704 14.2067 11.1699 14.2298 11.0633H14.7363C14.7009 11.3224 14.5808 11.5609 14.3964 11.7391C14.2096 11.9121 13.9666 12.005 13.7164 11.999L13.6103 12.2737H13.2227L13.3458 11.9531C13.264 11.931 13.1853 11.8977 13.1119 11.8542L12.9487 12.2737H12.5584L12.8222 11.5929C12.6403 11.3271 12.5498 11.0055 12.5652 10.6798C12.5534 10.4936 12.5778 10.3068 12.6369 10.1305C12.696 9.95427 12.7887 9.79214 12.9093 9.65376C13.0082 9.54993 13.1268 9.46848 13.2575 9.41452C13.3882 9.36056 13.5282 9.33526 13.6688 9.34021H13.694L13.8395 8.9624ZM13.2506 10.0217C13.1316 10.2186 13.075 10.4492 13.0888 10.6812C13.0888 10.7519 13.0888 10.8147 13.0976 10.874L13.5056 9.81477C13.4009 9.85404 13.3114 9.92766 13.2506 10.0245V10.0217ZM14.1033 9.95105C14.049 9.88712 13.9782 9.84058 13.8993 9.81688L13.2989 11.367C13.3593 11.4324 13.4346 11.4809 13.5178 11.5082L14.1128 9.96659L14.1033 9.95105Z" fill="#E42313"/>
<path d="M13.7286 14.0136C13.0816 14.0136 12.4491 13.8144 11.9111 13.4411C11.3732 13.0678 10.9539 12.5371 10.7063 11.9163C10.4587 11.2955 10.3939 10.6124 10.5202 9.95339C10.6464 9.29435 10.9579 8.68898 11.4154 8.21384C11.873 7.7387 12.4559 7.41512 13.0904 7.28403C13.725 7.15294 14.3828 7.22022 14.9805 7.47737C15.5783 7.73451 16.0892 8.16996 16.4487 8.72867C16.8081 9.28738 17 9.94424 17 10.6162C16.9991 11.517 16.6541 12.3806 16.0408 13.0175C15.4275 13.6545 14.596 14.0127 13.7286 14.0136ZM13.7286 8.18905C13.2666 8.18905 12.8149 8.33133 12.4307 8.59792C12.0465 8.86451 11.747 9.24343 11.5702 9.68676C11.3933 10.1301 11.347 10.6179 11.4371 11.0886C11.5272 11.5593 11.7496 11.9916 12.0763 12.331C12.403 12.6704 12.8193 12.9015 13.2724 12.9952C13.7256 13.0889 14.1953 13.041 14.6222 12.8574C15.0492 12.6739 15.4141 12.363 15.6709 11.9641C15.9277 11.5651 16.0649 11.0961 16.065 10.6162C16.0643 9.97283 15.8179 9.35601 15.38 8.90101C14.942 8.44602 14.3481 8.18998 13.7286 8.18905Z" fill="#E42313"/>
</svg>
