<svg fill="none" height="97" viewBox="0 0 97 97" width="97" xmlns="http://www.w3.org/2000/svg">
  <g clip-path="url(#clip0)">
    <path clip-rule="evenodd"
          d="M15.667 97C15.667 97 9 97 9 90.333C9 83.666 15.667 63.667 49 63.667C82.333 63.667 89 83.667 89 90.334C89 97.001 82.333 97 82.333 97H15.667ZM49 57C53.6271 57.0001 58.1111 55.3957 61.6879 52.4604C65.2648 49.525 67.7132 45.4402 68.6159 40.9021C69.5187 36.3639 68.82 31.6531 66.6388 27.5723C64.4577 23.4915 60.929 20.2933 56.6542 18.5225C52.3793 16.7517 47.6227 16.518 43.1948 17.8611C38.7669 19.2043 34.9417 22.0412 32.371 25.8884C29.8003 29.7357 28.6431 34.3553 29.0966 38.9601C29.55 43.565 31.5862 47.8701 34.858 51.142C38.6087 54.8927 43.6957 56.9999 49 57Z"
          fill="#9E9E9E" fill-rule="evenodd"/>
  </g>
  <defs>
    <clipPath id="clip0">
      <rect fill="white" height="97" width="97"/>
    </clipPath>
  </defs>
</svg>
