<svg height="59" viewBox="0 0 209.638 59" width="209.638" xmlns="http://www.w3.org/2000/svg">
  <defs>
    <style>.credix-logo-svg-a {
      fill: #e42313;
    }

    .credix-logo-svg-b {
      fill: #6f7071;
    }

    .credix-logo-svg-c {
      fill: #696d6f;
    }</style>
  </defs>
  <path class="credix-logo-svg-a"
        d="M66.128.7A24.187,24.187,0,0,0,42.021,24.223c0,.234-.116.585-.116.936a15.183,15.183,0,1,1-30.365,0A4.548,4.548,0,0,0,7.02,20.6,4.475,4.475,0,0,0,2.5,25.159a24.228,24.228,0,0,0,48.445.936,2.3,2.3,0,0,0,.116-.936,15.183,15.183,0,1,1,30.365,0,4.52,4.52,0,1,0,9.04,0A24.429,24.429,0,0,0,66.128.7"
        transform="translate(-2.5 -0.7)"/>
  <path class="credix-logo-svg-a" d="M21.126,12.617A5.563,5.563,0,1,1,15.563,7a5.668,5.668,0,0,1,5.563,5.617"
        transform="translate(-1.308 0.373)"/>
  <path class="credix-logo-svg-a"
        d="M35.327,12.617a5.563,5.563,0,1,1-11.126,0A5.519,5.519,0,0,1,29.764,7a5.668,5.668,0,0,1,5.563,5.617"
        transform="translate(0.949 0.373)"/>
  <path class="credix-logo-svg-b" d="M107.9,38.1" transform="translate(13.807 5.509)"/>
  <path class="credix-logo-svg-c"
        d="M69.579,46.559a1.173,1.173,0,0,0-1.043-.234c-1.159.351-2.2.585-3.013.819a15.965,15.965,0,0,1-3.129.351h0a6.124,6.124,0,0,1-2.782-.7h0a5.609,5.609,0,0,1-3.245-5.383h0a5.491,5.491,0,0,1,1.854-4.447,6.988,6.988,0,0,1,4.288-1.4h0a21.042,21.042,0,0,1,5.679,1.053,1.1,1.1,0,0,0,1.043-.234,1.068,1.068,0,0,0,.464-.936V30.175A1.409,1.409,0,0,0,68.884,29c-1.043-.351-2.086-.7-3.013-.936a25.017,25.017,0,0,0-4.752-.468h0a15.353,15.353,0,0,0-7.3,1.521,13.435,13.435,0,0,0-4.636,3.628,11.893,11.893,0,0,0-2.2,4.564,13.919,13.919,0,0,0-.579,4.1h0a19.288,19.288,0,0,0,.579,4.1,16.477,16.477,0,0,0,2.2,4.564,11.58,11.58,0,0,0,4.636,3.745,16.892,16.892,0,0,0,7.3,1.521A30.542,30.542,0,0,0,64.6,55.1a18.117,18.117,0,0,0,2.9-.585c.579-.234,1.159-.351,1.738-.585a1.162,1.162,0,0,0,.811-1.17V47.5a1.068,1.068,0,0,0-.464-.936"
        transform="translate(4.268 3.664)"/>
  <path class="credix-logo-svg-c"
        d="M92.784,29.121A11.594,11.594,0,0,0,90.7,28.068a6.952,6.952,0,0,0-2.782-.468h0a7.447,7.447,0,0,0-5.331,2.341A16.483,16.483,0,0,0,79.8,33.686v-4.33a1.067,1.067,0,0,0-.348-.819,1.246,1.246,0,0,0-.811-.351H71.459a1.047,1.047,0,0,0-.811.351,1.271,1.271,0,0,0-.348.819V53.7a1.067,1.067,0,0,0,.348.819,1.246,1.246,0,0,0,.811.351h7.186a1.047,1.047,0,0,0,.811-.351A1.271,1.271,0,0,0,79.8,53.7V43.4c.927-2.341,1.738-3.979,2.666-4.8a4.733,4.733,0,0,1,3.245-1.287h0a5.572,5.572,0,0,1,3.129,1.053,1.117,1.117,0,0,0,1.043.117,1.229,1.229,0,0,0,.811-.7l2.666-7.139a1.166,1.166,0,0,0-.579-1.521"
        transform="translate(7.954 3.664)"/>
  <path class="credix-logo-svg-c"
        d="M111.941,29a14.4,14.4,0,0,0-6.258-1.4,18.331,18.331,0,0,0-8.345,1.755,11.011,11.011,0,0,0-5.1,4.915A14.323,14.323,0,0,0,90.5,41.293a14.456,14.456,0,0,0,1.738,7.139,13.247,13.247,0,0,0,5.1,5.032,16.934,16.934,0,0,0,8.345,1.872h0a31.814,31.814,0,0,0,7.417-.819,31.854,31.854,0,0,0,4.4-1.638,1.125,1.125,0,0,0,.7-1.053V48.2a1.232,1.232,0,0,0-.579-1.053,1.36,1.36,0,0,0-1.159-.117,24.19,24.19,0,0,1-8.808,1.99h0a7.362,7.362,0,0,1-4.636-1.521,6.91,6.91,0,0,1-2.55-3.511H117.62a1.047,1.047,0,0,0,.811-.351,1.271,1.271,0,0,0,.348-.819v-.819a15.543,15.543,0,0,0-1.97-8.192A10.2,10.2,0,0,0,111.941,29ZM105.1,33.8h0a4.2,4.2,0,0,1,3.477,1.4,5.365,5.365,0,0,1,1.159,3.745h-9.619a5.151,5.151,0,0,1,1.391-3.745,4.777,4.777,0,0,1,3.593-1.4"
        transform="translate(11.057 3.664)"/>
  <path class="credix-logo-svg-c"
        d="M145.015,19.9H137.83a1.048,1.048,0,0,0-.811.351,1.271,1.271,0,0,0-.348.819v9.714a17.381,17.381,0,0,0-2.55-1.287,13.23,13.23,0,0,0-4.172-.585h0a12.308,12.308,0,0,0-7.07,1.99,11.539,11.539,0,0,0-4.288,5.149,16.93,16.93,0,0,0-1.391,6.788,15.828,15.828,0,0,0,1.738,7.724,11.684,11.684,0,0,0,10.315,5.969h0a9.469,9.469,0,0,0,4.52-.819,18.244,18.244,0,0,0,2.782-1.755v.936a1.067,1.067,0,0,0,.348.819,1.246,1.246,0,0,0,.811.351H144.9a1.047,1.047,0,0,0,.811-.351,1.271,1.271,0,0,0,.348-.819V21.07a1.067,1.067,0,0,0-.348-.819c0-.234-.348-.351-.7-.351m-8.461,17.789v9.831a17.682,17.682,0,0,1-1.854,1.287,5.531,5.531,0,0,1-2.55.468h0a4.318,4.318,0,0,1-3.361-1.521,7.294,7.294,0,0,1-1.507-4.915h0a7.733,7.733,0,0,1,1.391-4.915,4.267,4.267,0,0,1,3.477-1.755h0a5.565,5.565,0,0,1,2.086.351,8.461,8.461,0,0,1,2.318,1.17"
        transform="translate(15.168 2.352)"/>
  <path class="credix-logo-svg-b"
        d="M149.37,27.124a3.974,3.974,0,0,0,2.086.585h0a4.028,4.028,0,0,0,2.782-1.17,4.21,4.21,0,0,0,1.275-2.926h0a4.642,4.642,0,0,0-1.159-2.926,4.131,4.131,0,0,0-2.9-1.287h0a4.549,4.549,0,0,0-2.9,1.17A4.084,4.084,0,0,0,147.4,23.5a4.413,4.413,0,0,0,.579,2.107,2.962,2.962,0,0,0,1.391,1.521Z"
        transform="translate(19.893 2.391)"/>
  <path class="credix-logo-svg-c"
        d="M155.145,28h-7.186a1.047,1.047,0,0,0-.811.351,1.27,1.27,0,0,0-.348.819V53.513a1.067,1.067,0,0,0,.348.819,1.246,1.246,0,0,0,.811.351h7.186a1.047,1.047,0,0,0,.811-.351,1.271,1.271,0,0,0,.348-.819V29.287a1.067,1.067,0,0,0-.348-.819.775.775,0,0,0-.811-.468"
        transform="translate(19.796 3.732)"/>
  <path class="credix-logo-svg-c"
        d="M188.019,52.811l-9.156-12.054,8.46-10.767a1.266,1.266,0,0,0,.116-1.287A1.114,1.114,0,0,0,186.4,28h-7.533a1.38,1.38,0,0,0-1.043.585l-4.4,6.437-4.4-6.437A1.215,1.215,0,0,0,167.969,28H159.16a1.014,1.014,0,0,0-1.043.7,1.266,1.266,0,0,0,.116,1.287l8.924,11.586-8.692,11.118a1.266,1.266,0,0,0-.116,1.287,1.113,1.113,0,0,0,1.043.7h7.533a1.38,1.38,0,0,0,1.043-.585l4.52-6.788,4.636,6.788a1.214,1.214,0,0,0,1.043.585h8.808a1.014,1.014,0,0,0,1.043-.7,1.067,1.067,0,0,0,0-1.17"
        transform="translate(21.446 3.732)"/>
</svg>
