<svg width="22" height="22" viewBox="0 0 22 22" fill="none" xmlns="http://www.w3.org/2000/svg">
<path d="M15.95 9.9C17.5546 9.9 19.0934 10.5374 20.228 11.672C21.3626 12.8066 22 14.3454 22 15.95C22 17.5546 21.3626 19.0934 20.228 20.228C19.0934 21.3626 17.5546 22 15.95 22C14.3454 22 12.8066 21.3626 11.672 20.228C10.5374 19.0934 9.9 17.5546 9.9 15.95C9.9 14.3454 10.5374 12.8066 11.672 11.672C12.8066 10.5374 14.3454 9.9 15.95 9.9ZM13.2264 13.2264C13.1233 13.3295 13.0654 13.4694 13.0654 13.6152C13.0654 13.7611 13.1233 13.901 13.2264 14.0041L15.1723 15.9511L13.2286 17.8937C13.1775 17.9448 13.1369 18.0054 13.1092 18.0721C13.0815 18.1389 13.0672 18.2104 13.0671 18.2827C13.0671 18.355 13.0813 18.4265 13.1089 18.4933C13.1365 18.5601 13.177 18.6208 13.2281 18.672C13.2791 18.7231 13.3398 18.7637 13.4065 18.7914C13.4732 18.8191 13.5448 18.8334 13.6171 18.8334C13.6893 18.8335 13.7609 18.8193 13.8277 18.7917C13.8945 18.7641 13.9552 18.7236 14.0063 18.6725L15.95 16.7288L17.897 18.6747C17.9477 18.7272 18.0084 18.7691 18.0755 18.798C18.1426 18.8268 18.2148 18.842 18.2878 18.8426C18.3609 18.8432 18.4333 18.8293 18.5009 18.8017C18.5685 18.774 18.6299 18.7332 18.6815 18.6815C18.7332 18.6299 18.774 18.5685 18.8017 18.5009C18.8293 18.4333 18.8432 18.3609 18.8426 18.2878C18.842 18.2148 18.8268 18.1426 18.798 18.0755C18.7691 18.0084 18.7272 17.9477 18.6747 17.897L16.7288 15.95L18.6769 14.003C18.7771 13.8993 18.8325 13.7603 18.8313 13.6161C18.83 13.4719 18.7722 13.334 18.6702 13.232C18.5682 13.13 18.4303 13.0722 18.2861 13.0709C18.1419 13.0697 18.0029 13.1251 17.8992 13.2253L15.9511 15.1723L14.0041 13.2253C13.901 13.1222 13.7611 13.0643 13.6152 13.0643C13.4694 13.0643 13.3295 13.1222 13.2264 13.2253V13.2264ZM16.225 0C17.1731 0 18.0825 0.376651 18.7529 1.04709C19.4234 1.71754 19.8 2.62685 19.8 3.575L19.8011 9.9253C19.2869 9.59525 18.7323 9.33276 18.1511 9.1443L18.15 6.05H1.65V16.225C1.65 17.2876 2.5124 18.15 3.575 18.15H9.1454C9.3346 18.7374 9.5986 19.2918 9.9253 19.8011L3.575 19.8C2.62685 19.8 1.71754 19.4234 1.04709 18.7529C0.376651 18.0825 0 17.1731 0 16.225V3.575C0 2.62685 0.376651 1.71754 1.04709 1.04709C1.71754 0.376651 2.62685 0 3.575 0H16.225ZM16.225 1.65H3.575C3.06446 1.65 2.57483 1.85281 2.21382 2.21382C1.85281 2.57483 1.65 3.06446 1.65 3.575V4.4H18.15V3.575C18.15 3.06446 17.9472 2.57483 17.5862 2.21382C17.2252 1.85281 16.7355 1.65 16.225 1.65Z" fill="#E42313"/>
</svg>
