<svg width="19" height="18" viewBox="0 0 19 18" fill="none" xmlns="http://www.w3.org/2000/svg">
<mask id="mask0_4261_7118" style="mask-type:luminance" maskUnits="userSpaceOnUse" x="0" y="0" width="19" height="18">
<path d="M1.5 4.2002H17.5V7.4002L16.9408 7.7362C16.5056 7.9973 16.0077 8.13522 15.5002 8.13522C14.9927 8.13522 14.4948 7.9973 14.0596 7.7362L13.5 7.4002L12.9408 7.7362C12.5056 7.9973 12.0077 8.13522 11.5002 8.13522C10.9927 8.13522 10.4948 7.9973 10.0596 7.7362L9.5 7.4002L8.9408 7.7362C8.50559 7.99737 8.00757 8.13534 7.5 8.13534C6.99243 8.13534 6.49441 7.99737 6.0592 7.7362L5.5 7.4002L4.9404 7.7362C4.50528 7.99722 4.00741 8.1351 3.5 8.1351C2.99259 8.1351 2.49472 7.99722 2.0596 7.7362L1.5 7.4002V4.2002Z" fill="white" stroke="white" stroke-width="1.5" stroke-linecap="round" stroke-linejoin="round"/>
<path d="M3.10002 8.3956V17H15.9V8.2M3.10002 4.1288V1H15.9V4.2" stroke="white" stroke-width="1.5" stroke-linecap="round" stroke-linejoin="round"/>
<path d="M7.5 12.2002H11.5V17.0002H7.5V12.2002Z" fill="white" stroke="white" stroke-width="1.5" stroke-linecap="round" stroke-linejoin="round"/>
</mask>
<g mask="url(#mask0_4261_7118)">
<path d="M-0.100021 -0.600098H19.1V18.5999H-0.100021V-0.600098Z" fill="#E42313"/>
</g>
</svg>
