<svg width="22" height="22" viewBox="0 0 22 22" fill="none" xmlns="http://www.w3.org/2000/svg">
<path d="M7.95149 5.06452C7.81023 4.71148 7.56646 4.40884 7.25162 4.19561C6.93678 3.98238 6.56529 3.86833 6.18503 3.86816H3.56676C3.08842 3.86816 2.62967 4.05818 2.29144 4.39642C1.9532 4.73465 1.76318 5.1934 1.76318 5.67174C1.76318 14.1366 8.62533 20.9997 17.0912 20.9997C17.5695 20.9997 18.0283 20.8097 18.3665 20.4715C18.7047 20.1333 18.8948 19.6745 18.8948 19.1962V16.5779C18.8948 16.1975 18.7808 15.8258 18.5676 15.5107C18.3543 15.1957 18.0516 14.9518 17.6984 14.8105L15.1896 13.8073C14.871 13.6798 14.5239 13.6408 14.1849 13.6944C13.846 13.7481 13.5279 13.8923 13.2642 14.1119L12.617 14.6525C12.2519 14.9568 11.7863 15.1136 11.3115 15.0921C10.8367 15.0706 10.3871 14.8724 10.0511 14.5364L8.2275 12.71C7.89167 12.3742 7.69347 11.925 7.67181 11.4506C7.65015 10.9763 7.80659 10.5109 8.11043 10.1459L8.65008 9.49874C8.87017 9.23515 9.01485 8.91693 9.06881 8.57781C9.12276 8.23868 9.08397 7.89127 8.95654 7.57239L7.95149 5.06452Z" stroke="#E42313" stroke-width="2" stroke-linecap="round" stroke-linejoin="round"/>
<path d="M15.8553 0L17.034 3.62766H20.8483L17.7625 5.86968L18.9412 9.49734L15.8553 7.25532L12.7694 9.49734L13.9481 5.86968L10.8622 3.62766H14.6766L15.8553 0Z" fill="#E42313"/>
</svg>
