<svg width="19" height="18" viewBox="0 0 19 18" fill="none" xmlns="http://www.w3.org/2000/svg">
<path d="M14.1395 4.19892C14.1395 4.02314 14.0697 3.85456 13.9454 3.73026C13.8211 3.60596 13.6525 3.53613 13.4767 3.53613C13.301 3.53613 13.1324 3.60596 13.0081 3.73026C12.8838 3.85456 12.814 4.02314 12.814 4.19892V5.30357H11.7093C11.5335 5.30357 11.3649 5.3734 11.2406 5.4977C11.1163 5.622 11.0465 5.79058 11.0465 5.96637C11.0465 6.14215 11.1163 6.31073 11.2406 6.43503C11.3649 6.55933 11.5335 6.62916 11.7093 6.62916H12.814V7.73381C12.814 7.90959 12.8838 8.07817 13.0081 8.20247C13.1324 8.32677 13.301 8.3966 13.4767 8.3966C13.6525 8.3966 13.8211 8.32677 13.9454 8.20247C14.0697 8.07817 14.1395 7.90959 14.1395 7.73381V6.62916H15.2442C15.42 6.62916 15.5885 6.55933 15.7128 6.43503C15.8371 6.31073 15.907 6.14215 15.907 5.96637C15.907 5.79058 15.8371 5.622 15.7128 5.4977C15.5885 5.3734 15.42 5.30357 15.2442 5.30357H14.1395V4.19892Z" fill="#E42313"/>
<path fill-rule="evenodd" clip-rule="evenodd" d="M19 6.24746C19 3.3082 17.6903 1.11481 15.6507 0.316806C13.764 -0.422869 11.499 0.13034 9.5 2.00118C7.50102 0.13034 5.23605 -0.422869 3.3493 0.316806C1.30967 1.11481 0 3.3082 0 6.24657C0 8.11918 0.998605 9.96085 2.242 11.5462C3.49865 13.1484 5.07874 14.5827 6.39726 15.6529L6.51567 15.7501C7.57614 16.6117 8.34321 17.2348 9.5 17.2348C10.6577 17.2348 11.423 16.6117 12.4843 15.7501L12.6027 15.6529C13.9213 14.5836 15.5013 13.1484 16.758 11.5462C18.0014 9.96085 19 8.11918 19 6.24746ZM9.98428 3.39215C11.8507 1.39583 13.7852 1.00964 15.1682 1.55048C16.5539 2.09308 17.6744 3.68025 17.6744 6.24746C17.6744 7.67113 16.8967 9.22029 15.7143 10.7279C14.5443 12.2214 13.049 13.5841 11.7676 14.6242C10.5366 15.6229 10.1389 15.9083 9.5 15.9083C8.86107 15.9083 8.4634 15.6229 7.23237 14.6234C5.95098 13.5841 4.45572 12.2205 3.28567 10.7288C2.10237 9.22029 1.32558 7.67113 1.32558 6.24746C1.32558 3.68025 2.44614 2.09397 3.83181 1.55048C5.21484 1.00964 7.1493 1.39583 9.01572 3.39215C9.07773 3.45851 9.15271 3.51142 9.23602 3.5476C9.31933 3.58377 9.40918 3.60244 9.5 3.60244C9.59082 3.60244 9.68067 3.58377 9.76398 3.5476C9.84729 3.51142 9.92227 3.45851 9.98428 3.39215Z" fill="#E42313"/>
</svg>
