<svg width="22" height="20" viewBox="0 0 22 20" fill="none" xmlns="http://www.w3.org/2000/svg">
<mask id="path-1-inside-1_4261_7102" fill="white">
<path d="M1 5V4C0.734784 4 0.48043 4.10536 0.292893 4.29289C0.105357 4.48043 0 4.73478 0 5H1ZM12 5H13C13 4.73478 12.8946 4.48043 12.7071 4.29289C12.5196 4.10536 12.2652 4 12 4V5ZM12 7V6C11.7348 6 11.4804 6.10536 11.2929 6.29289C11.1054 6.48043 11 6.73478 11 7H12ZM1 6H12V4H1V6ZM11 5V17H13V5H11ZM2 15V5H0V15H2ZM12 8H17V6H12V8ZM20 11V15H22V11H20ZM13 17V7H11V17H13ZM17.707 17.707C17.5195 17.8945 17.2652 17.9998 17 17.9998C16.7348 17.9998 16.4805 17.8945 16.293 17.707L14.879 19.121C15.4416 19.6834 16.2045 19.9994 17 19.9994C17.7955 19.9994 18.5584 19.6834 19.121 19.121L17.707 17.707ZM16.293 16.293C16.4805 16.1055 16.7348 16.0002 17 16.0002C17.2652 16.0002 17.5195 16.1055 17.707 16.293L19.121 14.879C18.5584 14.3166 17.7955 14.0006 17 14.0006C16.2045 14.0006 15.4416 14.3166 14.879 14.879L16.293 16.293ZM5.707 17.707C5.51947 17.8945 5.26516 17.9998 5 17.9998C4.73484 17.9998 4.48053 17.8945 4.293 17.707L2.879 19.121C3.44158 19.6834 4.20451 19.9994 5 19.9994C5.79549 19.9994 6.55842 19.6834 7.121 19.121L5.707 17.707ZM4.293 16.293C4.48053 16.1055 4.73484 16.0002 5 16.0002C5.26516 16.0002 5.51947 16.1055 5.707 16.293L7.121 14.879C6.55842 14.3166 5.79549 14.0006 5 14.0006C4.20451 14.0006 3.44158 14.3166 2.879 14.879L4.293 16.293ZM17.707 16.293C17.903 16.488 18 16.743 18 17H20C20 16.234 19.707 15.464 19.121 14.879L17.707 16.293ZM18 17C18.0003 17.1314 17.9746 17.2615 17.9243 17.3828C17.874 17.5042 17.8001 17.6144 17.707 17.707L19.121 19.121C19.3999 18.8427 19.621 18.5121 19.7719 18.1481C19.9227 17.7841 20.0002 17.394 20 17H18ZM15 16H12V18H15V16ZM16.293 17.707C16.1999 17.6144 16.126 17.5042 16.0757 17.3828C16.0254 17.2615 15.9997 17.1314 16 17H14C14 17.766 14.293 18.536 14.879 19.121L16.293 17.707ZM16 17C15.9995 16.8686 16.0251 16.7384 16.0754 16.617C16.1257 16.4957 16.1997 16.3855 16.293 16.293L14.879 14.879C14.6001 15.1573 14.379 15.4879 14.2281 15.8519C14.0773 16.2159 13.9998 16.606 14 17H16ZM4.293 17.707C4.19987 17.6144 4.12602 17.5042 4.07573 17.3828C4.02544 17.2615 3.9997 17.1314 4 17H2C2 17.766 2.293 18.536 2.879 19.121L4.293 17.707ZM4 17C3.99948 16.8686 4.02512 16.7384 4.07542 16.617C4.12572 16.4957 4.19969 16.3855 4.293 16.293L2.879 14.879C2.60014 15.1573 2.37895 15.4879 2.22811 15.8519C2.07728 16.2159 1.99976 16.606 2 17H4ZM12 16H7V18H12V16ZM5.707 16.293C5.903 16.488 6 16.743 6 17H8C8 16.234 7.707 15.464 7.121 14.879L5.707 16.293ZM6 17C6.0003 17.1314 5.97456 17.2615 5.92427 17.3828C5.87398 17.5042 5.80013 17.6144 5.707 17.707L7.121 19.121C7.39986 18.8427 7.62105 18.5121 7.77189 18.1481C7.92272 17.7841 8.00024 17.394 8 17H6ZM20 15C20 15.2652 19.8946 15.5196 19.7071 15.7071C19.5196 15.8946 19.2652 16 19 16V18C19.7956 18 20.5587 17.6839 21.1213 17.1213C21.6839 16.5587 22 15.7956 22 15H20ZM17 8C17.7956 8 18.5587 8.31607 19.1213 8.87868C19.6839 9.44129 20 10.2044 20 11H22C22 10.3434 21.8707 9.69321 21.6194 9.08658C21.3681 8.47996 20.9998 7.92876 20.5355 7.46447C20.0712 7.00017 19.52 6.63188 18.9134 6.3806C18.3068 6.12933 17.6566 6 17 6V8ZM0 15C0 15.7956 0.31607 16.5587 0.87868 17.1213C1.44129 17.6839 2.20435 18 3 18V16C2.73478 16 2.48043 15.8946 2.29289 15.7071C2.10536 15.5196 2 15.2652 2 15H0Z"/>
</mask>
<path d="M1 5V4C0.734784 4 0.48043 4.10536 0.292893 4.29289C0.105357 4.48043 0 4.73478 0 5H1ZM12 5H13C13 4.73478 12.8946 4.48043 12.7071 4.29289C12.5196 4.10536 12.2652 4 12 4V5ZM12 7V6C11.7348 6 11.4804 6.10536 11.2929 6.29289C11.1054 6.48043 11 6.73478 11 7H12ZM1 6H12V4H1V6ZM11 5V17H13V5H11ZM2 15V5H0V15H2ZM12 8H17V6H12V8ZM20 11V15H22V11H20ZM13 17V7H11V17H13ZM17.707 17.707C17.5195 17.8945 17.2652 17.9998 17 17.9998C16.7348 17.9998 16.4805 17.8945 16.293 17.707L14.879 19.121C15.4416 19.6834 16.2045 19.9994 17 19.9994C17.7955 19.9994 18.5584 19.6834 19.121 19.121L17.707 17.707ZM16.293 16.293C16.4805 16.1055 16.7348 16.0002 17 16.0002C17.2652 16.0002 17.5195 16.1055 17.707 16.293L19.121 14.879C18.5584 14.3166 17.7955 14.0006 17 14.0006C16.2045 14.0006 15.4416 14.3166 14.879 14.879L16.293 16.293ZM5.707 17.707C5.51947 17.8945 5.26516 17.9998 5 17.9998C4.73484 17.9998 4.48053 17.8945 4.293 17.707L2.879 19.121C3.44158 19.6834 4.20451 19.9994 5 19.9994C5.79549 19.9994 6.55842 19.6834 7.121 19.121L5.707 17.707ZM4.293 16.293C4.48053 16.1055 4.73484 16.0002 5 16.0002C5.26516 16.0002 5.51947 16.1055 5.707 16.293L7.121 14.879C6.55842 14.3166 5.79549 14.0006 5 14.0006C4.20451 14.0006 3.44158 14.3166 2.879 14.879L4.293 16.293ZM17.707 16.293C17.903 16.488 18 16.743 18 17H20C20 16.234 19.707 15.464 19.121 14.879L17.707 16.293ZM18 17C18.0003 17.1314 17.9746 17.2615 17.9243 17.3828C17.874 17.5042 17.8001 17.6144 17.707 17.707L19.121 19.121C19.3999 18.8427 19.621 18.5121 19.7719 18.1481C19.9227 17.7841 20.0002 17.394 20 17H18ZM15 16H12V18H15V16ZM16.293 17.707C16.1999 17.6144 16.126 17.5042 16.0757 17.3828C16.0254 17.2615 15.9997 17.1314 16 17H14C14 17.766 14.293 18.536 14.879 19.121L16.293 17.707ZM16 17C15.9995 16.8686 16.0251 16.7384 16.0754 16.617C16.1257 16.4957 16.1997 16.3855 16.293 16.293L14.879 14.879C14.6001 15.1573 14.379 15.4879 14.2281 15.8519C14.0773 16.2159 13.9998 16.606 14 17H16ZM4.293 17.707C4.19987 17.6144 4.12602 17.5042 4.07573 17.3828C4.02544 17.2615 3.9997 17.1314 4 17H2C2 17.766 2.293 18.536 2.879 19.121L4.293 17.707ZM4 17C3.99948 16.8686 4.02512 16.7384 4.07542 16.617C4.12572 16.4957 4.19969 16.3855 4.293 16.293L2.879 14.879C2.60014 15.1573 2.37895 15.4879 2.22811 15.8519C2.07728 16.2159 1.99976 16.606 2 17H4ZM12 16H7V18H12V16ZM5.707 16.293C5.903 16.488 6 16.743 6 17H8C8 16.234 7.707 15.464 7.121 14.879L5.707 16.293ZM6 17C6.0003 17.1314 5.97456 17.2615 5.92427 17.3828C5.87398 17.5042 5.80013 17.6144 5.707 17.707L7.121 19.121C7.39986 18.8427 7.62105 18.5121 7.77189 18.1481C7.92272 17.7841 8.00024 17.394 8 17H6ZM20 15C20 15.2652 19.8946 15.5196 19.7071 15.7071C19.5196 15.8946 19.2652 16 19 16V18C19.7956 18 20.5587 17.6839 21.1213 17.1213C21.6839 16.5587 22 15.7956 22 15H20ZM17 8C17.7956 8 18.5587 8.31607 19.1213 8.87868C19.6839 9.44129 20 10.2044 20 11H22C22 10.3434 21.8707 9.69321 21.6194 9.08658C21.3681 8.47996 20.9998 7.92876 20.5355 7.46447C20.0712 7.00017 19.52 6.63188 18.9134 6.3806C18.3068 6.12933 17.6566 6 17 6V8ZM0 15C0 15.7956 0.31607 16.5587 0.87868 17.1213C1.44129 17.6839 2.20435 18 3 18V16C2.73478 16 2.48043 15.8946 2.29289 15.7071C2.10536 15.5196 2 15.2652 2 15H0Z" fill="#E42313"/>
<path d="M11 17.5H13V16.5H11V17.5ZM0 15.5H2V14.5H0V15.5ZM17.5 8V6H16.5V8H17.5ZM20 15.5H22V14.5H20V15.5ZM22 10.5H20V11.5H22V10.5ZM15.9394 17.3534L14.5254 18.7674L15.2326 19.4746L16.6466 18.0606L15.9394 17.3534ZM19.4746 18.7674L18.0606 17.3534L17.3534 18.0606L18.7674 19.4746L19.4746 18.7674ZM18.0606 16.6466L19.4746 15.2326L18.7674 14.5254L17.3534 15.9394L18.0606 16.6466ZM14.5254 15.2326L15.9394 16.6466L16.6466 15.9394L15.2326 14.5254L14.5254 15.2326ZM3.93945 17.3534L2.52545 18.7674L3.23255 19.4746L4.64655 18.0606L3.93945 17.3534ZM7.47455 18.7674L6.06055 17.3534L5.35345 18.0606L6.76745 19.4746L7.47455 18.7674ZM6.06055 16.6466L7.47455 15.2326L6.76745 14.5254L5.35345 15.9394L6.06055 16.6466ZM2.52545 15.2326L3.93945 16.6466L4.64655 15.9394L3.23255 14.5254L2.52545 15.2326ZM18 17.5H20V16.5H18V17.5ZM11.5 16V18H12.5V16H11.5ZM16 16.5H14V17.5H16V16.5ZM4 16.5H2V17.5H4V16.5ZM6 17.5H8V16.5H6V17.5ZM1 5V6H2V5H1ZM0 5H-1H0ZM12 5H11V6H12V5ZM12 7V8H13V7H12ZM1 6H0V7H1V6ZM11 5V4H10V5H11ZM2 15H1H2ZM2 5H3V4H2V5ZM0 15H-1H0ZM12 8H11V9H12V8ZM17 6V5V6ZM20 11H21H20ZM22 15H23H22ZM22 11H21H22ZM13 7H14V6H13V7ZM17.707 17.707L17.0018 16.998L17 16.9998L17.707 17.707ZM16.293 17.707L17 16.9998L16.9982 16.998L16.293 17.707ZM14.879 19.121L15.586 18.4138L15.5855 18.4133L14.879 19.121ZM19.121 19.121L18.4146 18.4132L18.414 18.4138L19.121 19.121ZM16.293 16.293L16.997 17.0032L17 17.0002L16.293 16.293ZM17.707 16.293L17 17.0002L17.0017 17.0019L17.707 16.293ZM19.121 14.879L18.414 15.5862L18.4145 15.5867L19.121 14.879ZM14.879 14.879L15.5854 15.5868L15.586 15.5862L14.879 14.879ZM5.707 17.707L5.00177 16.998L5 16.9998L5.707 17.707ZM4.293 17.707L5 16.9998L4.99823 16.998L4.293 17.707ZM2.879 19.121L3.586 18.4138L3.5855 18.4133L2.879 19.121ZM7.121 19.121L6.41459 18.4132L6.414 18.4138L7.121 19.121ZM4.293 16.293L4.99704 17.0032L5 17.0002L4.293 16.293ZM5.707 16.293L5 17.0002L5.0017 17.0019L5.707 16.293ZM7.121 14.879L6.414 15.5862L6.4145 15.5867L7.121 14.879ZM2.879 14.879L3.58541 15.5868L3.586 15.5862L2.879 14.879ZM18 17H17L17 17.0023L18 17ZM20 17H19V17.0006L20 17ZM15 16H16V15H15V16ZM15 18V19H16V18H15ZM16 17L17 17.0023L17 16.996L16 17ZM14 17H15V16.9994L14 17ZM4 17L5.00002 17.0023L4.99999 16.996L4 17ZM2 17H3L3 16.9994L2 17ZM7 16V15H6V16H7ZM7 18H6V19H7V18ZM6 17H5L5 17.0023L6 17ZM8 17H7V17.0006L8 17ZM19 16V15H18V16H19ZM19 18H18V19H19V18ZM3 18V19H4V18H3ZM3 16H4V15H3V16ZM2 5V4H0V5H2ZM1 3C0.469567 3 -0.0391412 3.21071 -0.414214 3.58579L1 5L1 5V3ZM-0.414214 3.58579C-0.789286 3.96086 -1 4.46957 -1 5H1L1 5L-0.414214 3.58579ZM0 6H1V4H0V6ZM12 6H13V4H12V6ZM14 5C14 4.46957 13.7893 3.96086 13.4142 3.58579L12 5V5H14ZM13.4142 3.58579C13.0391 3.21071 12.5304 3 12 3V5V5L13.4142 3.58579ZM11 4V5H13V4H11ZM13 7V6H11V7H13ZM12 5C11.4696 5 10.9609 5.21071 10.5858 5.58579L12 7V7V5ZM10.5858 5.58579C10.2107 5.96086 10 6.46957 10 7H12V7L10.5858 5.58579ZM11 8H12V6H11V8ZM1 7H12V5H1V7ZM13 6V4H11V6H13ZM12 3H1V5H12V3ZM0 4V6H2V4H0ZM10 5V17H12V5H10ZM14 17V5H12V17H14ZM13 4H11V6H13V4ZM3 15V5H1V15H3ZM2 4H0V6H2V4ZM-1 5V15H1V5H-1ZM12 9H17V7H12V9ZM17 5H12V7H17V5ZM11 6V8H13V6H11ZM19 11V15H21V11H19ZM23 15V11H21V15H23ZM14 17V7H12V17H14ZM13 6H11V8H13V6ZM10 7V17H12V7H10ZM17 16.9998V16.9998V18.9998C17.5303 18.9998 18.0389 18.7892 18.414 18.4142L17 16.9998ZM17 16.9998V16.9998L15.586 18.4142C15.9611 18.7892 16.4697 18.9998 17 18.9998V16.9998ZM14.172 19.8282C14.9221 20.5781 15.9393 20.9994 17 20.9994V18.9994C16.4697 18.9994 15.9611 18.7887 15.586 18.4138L14.172 19.8282ZM17 20.9994C18.0607 20.9994 19.0779 20.5781 19.828 19.8282L18.414 18.4138C18.0389 18.7887 17.5303 18.9994 17 18.9994V20.9994ZM17 17.0002V17.0002V15.0002C16.4697 15.0002 15.9611 15.2108 15.586 15.5858L17 17.0002ZM17 17.0002V17.0002L18.414 15.5858C18.0389 15.2108 17.5303 15.0002 17 15.0002V17.0002ZM19.828 14.1718C19.0779 13.4219 18.0607 13.0006 17 13.0006V15.0006C17.5303 15.0006 18.0389 15.2113 18.414 15.5862L19.828 14.1718ZM17 13.0006C15.9393 13.0006 14.9221 13.4219 14.172 14.1718L15.586 15.5862C15.9611 15.2113 16.4697 15.0006 17 15.0006V13.0006ZM5 16.9998V16.9998V18.9998C5.53033 18.9998 6.03894 18.7892 6.414 18.4142L5 16.9998ZM5 16.9998V16.9998L3.586 18.4142C3.96106 18.7892 4.46967 18.9998 5 18.9998V16.9998ZM2.172 19.8282C2.92211 20.5781 3.93934 20.9994 5 20.9994V18.9994C4.46967 18.9994 3.96106 18.7887 3.586 18.4138L2.172 19.8282ZM5 20.9994C6.06066 20.9994 7.07789 20.5781 7.828 19.8282L6.414 18.4138C6.03895 18.7887 5.53033 18.9994 5 18.9994V20.9994ZM5 17.0002V17.0002V15.0002C4.46967 15.0002 3.96106 15.2108 3.586 15.5858L5 17.0002ZM5 17.0002V17.0002L6.414 15.5858C6.03894 15.2108 5.53033 15.0002 5 15.0002V17.0002ZM7.828 14.1718C7.07789 13.4219 6.06066 13.0006 5 13.0006V15.0006C5.53033 15.0006 6.03895 15.2113 6.414 15.5862L7.828 14.1718ZM5 13.0006C3.93934 13.0006 2.92211 13.4219 2.172 14.1718L3.586 15.5862C3.96106 15.2113 4.46967 15.0006 5 15.0006V13.0006ZM17.0017 17.0019C17.0026 17.0028 17.0024 17.0027 17.0018 17.0018C17.0012 17.0009 17.0006 16.9999 17.0003 16.999C16.9995 16.997 17 16.9972 17 17H19C19 16.4898 18.8059 15.9757 18.4123 15.5841L17.0017 17.0019ZM21 17C21 15.9801 20.6095 14.9519 19.8275 14.1713L18.4145 15.5867C18.8045 15.9761 19 16.4879 19 17H21ZM17 17.0023C17 17.0015 17.0002 17.0007 17.0005 17L18.8481 17.7657C18.949 17.5222 19.0006 17.2612 19 16.9977L17 17.0023ZM17.0005 17C17.0008 16.9993 17.0012 16.9986 17.0018 16.998L18.4122 18.416C18.5991 18.2301 18.7472 18.0091 18.8481 17.7657L17.0005 17ZM19.8274 19.8288C20.1994 19.4575 20.4945 19.0165 20.6957 18.531L18.8481 17.7653C18.7476 18.0077 18.6003 18.2278 18.4146 18.4132L19.8274 19.8288ZM20.6957 18.531C20.8969 18.0454 21.0003 17.525 21 16.9994L19 17.0006C19.0002 17.263 18.9485 17.5229 18.8481 17.7653L20.6957 18.531ZM15 15H12V17H15V15ZM12 19H15V17H12V19ZM16 18V16H14V18H16ZM16.9982 16.998C16.9988 16.9986 16.9992 16.9993 16.9995 17L15.1519 17.7657C15.2528 18.0091 15.4009 18.2301 15.5878 18.416L16.9982 16.998ZM16.9995 17C16.9998 17.0007 17 17.0015 17 17.0023L15 16.9977C14.9994 17.2612 15.051 17.5222 15.1519 17.7657L16.9995 17ZM13 17C13 18.0199 13.3905 19.0481 14.1725 19.8287L15.5855 18.4133C15.1955 18.0239 15 17.5121 15 17H13ZM17 16.996C17 16.9974 16.9997 16.9987 16.9992 16.9999L15.1516 16.2342C15.0505 16.4782 14.999 16.7399 15 17.004L17 16.996ZM16.9992 16.9999C16.9987 17.0011 16.998 17.0022 16.997 17.0032L15.589 15.5828C15.4014 15.7688 15.2527 15.9902 15.1516 16.2342L16.9992 16.9999ZM14.1726 14.1712C13.8006 14.5425 13.5055 14.9835 13.3043 15.469L15.1519 16.2347C15.2524 15.9923 15.3997 15.7722 15.5854 15.5868L14.1726 14.1712ZM13.3043 15.469C13.1031 15.9546 12.9997 16.475 13 17.0006L15 16.9994C14.9998 16.737 15.0515 16.4771 15.1519 16.2347L13.3043 15.469ZM4.99823 16.998C4.99879 16.9986 4.99924 16.9992 4.99954 17L3.15192 17.7657C3.25281 18.0091 3.40095 18.2301 3.58777 18.416L4.99823 16.998ZM4.99954 17C4.99984 17.0007 5 17.0015 5 17.0023L3 16.9977C2.9994 17.2612 3.05103 17.5222 3.15192 17.7657L4.99954 17ZM1 17C1 18.0199 1.39052 19.0481 2.1725 19.8287L3.5855 18.4133C3.19548 18.0239 3 17.5121 3 17H1ZM4.99999 16.996C5 16.9974 4.99974 16.9987 4.99923 16.9999L3.15161 16.2342C3.05049 16.4782 2.99896 16.7399 3.00001 17.004L4.99999 16.996ZM4.99923 16.9999C4.99872 17.0011 4.99798 17.0022 4.99703 17.0032L3.58897 15.5828C3.4014 15.7688 3.25273 15.9902 3.15161 16.2342L4.99923 16.9999ZM2.17259 14.1712C1.80059 14.5425 1.50552 14.9835 1.3043 15.469L3.15192 16.2347C3.25238 15.9923 3.39969 15.7722 3.58541 15.5868L2.17259 14.1712ZM1.3043 15.469C1.10309 15.9546 0.999676 16.475 1 17.0006L3 16.9994C2.99984 16.737 3.05147 16.4771 3.15192 16.2347L1.3043 15.469ZM12 15H7V17H12V15ZM6 16V18H8V16H6ZM7 19H12V17H7V19ZM5.0017 17.0019C5.00255 17.0028 5.00237 17.0027 5.00176 17.0018C5.00117 17.0009 5.00064 16.9999 5.00026 16.999C4.99949 16.9971 5 16.9972 5 17H7C7 16.4898 6.80587 15.9757 6.4123 15.5841L5.0017 17.0019ZM9 17C9 15.9801 8.60948 14.9519 7.8275 14.1713L6.4145 15.5867C6.80452 15.9761 7 16.4879 7 17H9ZM5 17.0023C5 17.0015 5.00016 17.0007 5.00046 17L6.84808 17.7657C6.94897 17.5222 7.0006 17.2612 7 16.9977L5 17.0023ZM5.00046 17C5.00076 16.9992 5.00121 16.9986 5.00177 16.998L6.41223 18.416C6.59905 18.2301 6.74719 18.0091 6.84808 17.7657L5.00046 17ZM7.82741 19.8288C8.19942 19.4575 8.49448 19.0165 8.6957 18.531L6.84808 17.7653C6.74762 18.0077 6.60031 18.2278 6.41459 18.4132L7.82741 19.8288ZM8.6957 18.531C8.89691 18.0454 9.00032 17.525 9 16.9994L7 17.0006C7.00016 17.263 6.94853 17.5229 6.84808 17.7653L8.6957 18.531ZM19 15V15L20.4142 16.4142C20.7893 16.0391 21 15.5304 21 15H19ZM19 15V15V17C19.5304 17 20.0391 16.7893 20.4142 16.4142L19 15ZM18 16V18H20V16H18ZM19 19C20.0609 19 21.0783 18.5786 21.8284 17.8284L20.4142 16.4142C20.0391 16.7893 19.5304 17 19 17V19ZM21.8284 17.8284C22.5786 17.0783 23 16.0609 23 15H21C21 15.5304 20.7893 16.0391 20.4142 16.4142L21.8284 17.8284ZM17 9C17.5304 9 18.0391 9.21071 18.4142 9.58579L19.8284 8.17157C19.0783 7.42143 18.0609 7 17 7V9ZM18.4142 9.58579C18.7893 9.96086 19 10.4696 19 11H21C21 9.93913 20.5786 8.92172 19.8284 8.17157L18.4142 9.58579ZM23 11C23 10.2121 22.8448 9.43185 22.5433 8.7039L20.6955 9.46927C20.8965 9.95457 21 10.4747 21 11H23ZM22.5433 8.7039C22.2417 7.97595 21.7998 7.31451 21.2426 6.75736L19.8284 8.17157C20.1999 8.54301 20.4945 8.98396 20.6955 9.46927L22.5433 8.7039ZM21.2426 6.75736C20.6855 6.20021 20.0241 5.75825 19.2961 5.45672L18.5307 7.30448C19.016 7.5055 19.457 7.80014 19.8284 8.17157L21.2426 6.75736ZM19.2961 5.45672C18.5681 5.15519 17.7879 5 17 5V7C17.5253 7 18.0454 7.10346 18.5307 7.30448L19.2961 5.45672ZM-1 15C-1 16.0609 -0.578573 17.0783 0.171573 17.8284L1.58579 16.4142C1.21071 16.0391 1 15.5304 1 15H-1ZM0.171573 17.8284C0.921719 18.5786 1.93913 19 3 19V17C2.46957 17 1.96086 16.7893 1.58579 16.4142L0.171573 17.8284ZM4 18V16H2V18H4ZM3 15V15L1.58579 16.4142C1.96086 16.7893 2.46957 17 3 17V15ZM3 15V15H1C1 15.5304 1.21071 16.0391 1.58579 16.4142L3 15Z" fill="#E42313" mask="url(#path-1-inside-1_4261_7102)"/>
<path d="M2.5 2C2.5 1.73478 2.60536 1.48043 2.79289 1.29289C2.98043 1.10536 3.23478 1 3.5 1C4.29565 1 5.05871 1.31607 5.62132 1.87868C6.18393 2.44129 6.5 3.20435 6.5 4V5H5.5C4.70435 5 3.94129 4.68393 3.37868 4.12132C2.81607 3.55871 2.5 2.79565 2.5 2ZM10.5 2C10.5 1.73478 10.3946 1.48043 10.2071 1.29289C10.0196 1.10536 9.76522 1 9.5 1C8.70435 1 7.94129 1.31607 7.37868 1.87868C6.81607 2.44129 6.5 3.20435 6.5 4V5H7.5C8.29565 5 9.05871 4.68393 9.62132 4.12132C10.1839 3.55871 10.5 2.79565 10.5 2Z" fill="#E42313"/>
<path d="M6.5 4C6.5 3.20435 6.18393 2.44129 5.62132 1.87868C5.05871 1.31607 4.29565 1 3.5 1C3.23478 1 2.98043 1.10536 2.79289 1.29289C2.60536 1.48043 2.5 1.73478 2.5 2C2.5 2.79565 2.81607 3.55871 3.37868 4.12132C3.94129 4.68393 4.70435 5 5.5 5H6.5M6.5 4V5M6.5 4C6.5 3.20435 6.81607 2.44129 7.37868 1.87868C7.94129 1.31607 8.70435 1 9.5 1C9.76522 1 10.0196 1.10536 10.2071 1.29289C10.3946 1.48043 10.5 1.73478 10.5 2C10.5 2.79565 10.1839 3.55871 9.62132 4.12132C9.05871 4.68393 8.29565 5 7.5 5H6.5" stroke="#E42313" stroke-linejoin="round"/>
</svg>
