<svg height="16pt" viewBox="0 0 16 16" width="16pt" xmlns="http://www.w3.org/2000/svg">
  <g>
    <path
      d="M 7.042969 5.480469 L 8.609375 5.480469 L 8.609375 3.914062 L 7.042969 3.914062 M 7.824219 14.089844 C 4.367188 14.089844 1.566406 11.285156 1.566406 7.824219 C 1.566406 4.367188 4.367188 1.566406 7.824219 1.566406 C 11.285156 1.566406 14.085938 4.367188 14.085938 7.824219 C 14.082031 11.285156 11.285156 14.082031 7.824219 14.089844 Z M 7.824219 0 C 3.503906 0 0 3.503906 0 7.824219 C 0 12.148438 3.503906 15.652344 7.824219 15.652344 C 12.148438 15.652344 15.652344 12.148438 15.652344 7.824219 C 15.652344 3.503906 12.148438 0 7.824219 0 Z M 7.042969 11.738281 L 8.609375 11.738281 L 8.609375 7.042969 L 7.042969 7.042969 Z M 7.042969 11.738281 "
      style="fill: #ffffff;"/>
  </g>
</svg>
