<svg height="28.634" viewBox="0 0 41 28.634" width="41" xmlns="http://www.w3.org/2000/svg">
  <defs>
    <style>.additional-card-a, .additional-card-d {
      fill: #3e3e3e;
    }

    .additional-card-b, .additional-card-c {
      fill: #fff;
    }

    .additional-card-c, .additional-card-d {
      stroke: #474747;
    }

    .additional-card-c {
      stroke-width: 2px;
    }

    .additional-card-e {
      stroke: none;
    }

    .additional-card-f {
      fill: none;
    }</style>
  </defs>
  <g transform="translate(1445.385 -148.401)">
    <rect class="additional-card-a" height="24.42" rx="3" transform="translate(-1445.385 148.401)" width="36"/>
    <g transform="translate(-1438.212 154.741)">
      <path class="additional-card-b"
            d="M-1282.308,278.685a5.927,5.927,0,0,0-5.936,5.734c0,.057-.028.149-.028.228a3.738,3.738,0,0,1-3.738,3.738,3.738,3.738,0,0,1-3.738-3.738,1.114,1.114,0,0,0-1.113-1.113,1.1,1.1,0,0,0-1.113,1.079q0,.022,0,.045a5.973,5.973,0,0,0,6.175,5.764,5.973,5.973,0,0,0,5.752-5.536.56.56,0,0,0,.028-.228,3.738,3.738,0,0,1,3.738-3.738,3.738,3.738,0,0,1,3.738,3.738,1.113,1.113,0,0,0,1.052,1.17,1.113,1.113,0,0,0,1.17-1.052q0-.059,0-.118a5.984,5.984,0,0,0-5.987-5.973"
            transform="translate(1297.973 -278.685)"/>
      <path class="additional-card-b"
            d="M-1251.206,317.03a1.369,1.369,0,0,1-1.371,1.368,1.369,1.369,0,0,1-1.368-1.371,1.369,1.369,0,0,1,1.369-1.368,1.389,1.389,0,0,1,1.369,1.371"
            transform="translate(1256.087 -313.86)"/>
      <path class="additional-card-b"
            d="M-1167.989,317.028a1.369,1.369,0,0,1-1.369,1.369,1.369,1.369,0,0,1-1.369-1.369,1.353,1.353,0,0,1,1.334-1.371h.035a1.389,1.389,0,0,1,1.369,1.371"
            transform="translate(1176.919 -313.858)"/>
    </g>
    <g class="additional-card-c" transform="translate(-1419.385 162.036)">
      <circle class="additional-card-e" cx="7.5" cy="7.5" r="7.5"/>
      <circle class="additional-card-f" cx="7.5" cy="7.5" r="6.5"/>
    </g>
    <g transform="translate(-0.5 -2)">
      <g class="additional-card-d" transform="translate(-1412.385 168.036)">
        <rect class="additional-card-e" height="7" width="2"/>
        <rect class="additional-card-f" height="6" width="1" x="0.5" y="0.5"/>
      </g>
      <g class="additional-card-d" transform="translate(-1414.885 172.536) rotate(-90)">
        <rect class="additional-card-e" height="7" width="2"/>
        <rect class="additional-card-f" height="6" width="1" x="0.5" y="0.5"/>
      </g>
    </g>
  </g>
</svg>
