<svg height="14.222" viewBox="0 0 16 14.222" width="16" xmlns="http://www.w3.org/2000/svg">
  <path
    d="M4.777,10.331l1.333-4h9.778l1.333,4m-1.333,4.444a1.333,1.333,0,1,1,1.333-1.333A1.334,1.334,0,0,1,15.888,14.776Zm-9.778,0a1.333,1.333,0,1,1,1.333-1.333A1.334,1.334,0,0,1,6.111,14.776ZM17.15,5.9A1.334,1.334,0,0,0,15.888,5H6.111a1.333,1.333,0,0,0-1.26.9L3,11.22v7.111a.889.889,0,0,0,.889.889h.889a.889.889,0,0,0,.889-.889v-.889H16.333v.889a.889.889,0,0,0,.889.889h.889A.889.889,0,0,0,19,18.331V11.22Z"
    transform="translate(-2.999 -4.998)"/>
</svg>
