<svg width="16" height="19" viewBox="0 0 16 19" fill="none" xmlns="http://www.w3.org/2000/svg">
  <path
    d="M4.57143 8.71429V7.28571C4.57143 7.04904 4.76332 6.85714 5 6.85714H6.42857C6.66525 6.85714 6.85714 7.04904 6.85714 7.28571V8.71429C6.85714 8.95096 6.66525 9.14286 6.42857 9.14286H5C4.76332 9.14286 4.57143 8.95096 4.57143 8.71429ZM9.57143 9.14286H11C11.2367 9.14286 11.4286 8.95096 11.4286 8.71429V7.28571C11.4286 7.04904 11.2367 6.85714 11 6.85714H9.57143C9.33475 6.85714 9.14286 7.04904 9.14286 7.28571V8.71429C9.14286 8.95096 9.33475 9.14286 9.57143 9.14286ZM6.85714 12.1429V10.7143C6.85714 10.4776 6.66525 10.2857 6.42857 10.2857H5C4.76332 10.2857 4.57143 10.4776 4.57143 10.7143V12.1429C4.57143 12.3795 4.76332 12.5714 5 12.5714H6.42857C6.66525 12.5714 6.85714 12.3795 6.85714 12.1429ZM9.57143 12.5714H11C11.2367 12.5714 11.4286 12.3795 11.4286 12.1429V10.7143C11.4286 10.4776 11.2367 10.2857 11 10.2857H9.57143C9.33475 10.2857 9.14286 10.4776 9.14286 10.7143V12.1429C9.14286 12.3795 9.33475 12.5714 9.57143 12.5714ZM16 17V18.2857H0V17C0 16.7633 0.191893 16.5714 0.428571 16.5714H1.125V3.03696C1.125 2.62207 1.50875 2.28571 1.98214 2.28571H5.14286V0.857143C5.14286 0.38375 5.52661 0 6 0H10C10.4734 0 10.8571 0.38375 10.8571 0.857143V2.28571H14.0179C14.4913 2.28571 14.875 2.62207 14.875 3.03696V16.5714H15.5714C15.8081 16.5714 16 16.7633 16 17ZM2.83929 16.5357H6.85714V14.1429C6.85714 13.9062 7.04904 13.7143 7.28571 13.7143H8.71429C8.95096 13.7143 9.14286 13.9062 9.14286 14.1429V16.5357H13.1607V4H10.8571V4.85714C10.8571 5.33054 10.4734 5.71429 10 5.71429H6C5.52661 5.71429 5.14286 5.33054 5.14286 4.85714V4H2.83929V16.5357ZM9.5 2.28571H8.57143V1.35714C8.57143 1.30031 8.54885 1.24581 8.50867 1.20562C8.46848 1.16543 8.41398 1.14286 8.35714 1.14286H7.64286C7.58603 1.14286 7.53152 1.16543 7.49133 1.20562C7.45115 1.24581 7.42857 1.30031 7.42857 1.35714V2.28571H6.5C6.44317 2.28571 6.38866 2.30829 6.34848 2.34848C6.30829 2.38866 6.28571 2.44317 6.28571 2.5V3.21429C6.28571 3.27112 6.30829 3.32562 6.34848 3.36581C6.38866 3.406 6.44317 3.42857 6.5 3.42857H7.42857V4.35714C7.42857 4.41398 7.45115 4.46848 7.49133 4.50867C7.53152 4.54885 7.58603 4.57143 7.64286 4.57143H8.35714C8.41398 4.57143 8.46848 4.54885 8.50867 4.50867C8.54885 4.46848 8.57143 4.41398 8.57143 4.35714V3.42857H9.5C9.55683 3.42857 9.61134 3.406 9.65152 3.36581C9.69171 3.32562 9.71429 3.27112 9.71429 3.21429V2.5C9.71429 2.44317 9.69171 2.38866 9.65152 2.34848C9.61134 2.30829 9.55683 2.28571 9.5 2.28571Z"
    fill="black"/>
</svg>
