<svg height="23.909" viewBox="0 0 23.474 23.909" width="23.474" xmlns="http://www.w3.org/2000/svg">
  <path
    d="M830.4,299.945a2.172,2.172,0,0,0-2.188,2.188v19.534a2.172,2.172,0,0,0,2.188,2.187h10.835a2.17,2.17,0,0,0,2.188-2.187v-3.256h-2.188V320.6H830.4V303.2h10.835v2.188h2.188v-3.256a2.17,2.17,0,0,0-2.188-2.188Z"
    transform="translate(-828.208 -299.945)"/>
  <g transform="translate(12.811 10.027)">
    <path
      d="M830.789,312.153v.874l-.814-.483-.434.734.862.5-.862.569.434.71.814-.532v.966h.8v-.966l.8.446.41-.709-.813-.484.813-.5-.464-.734-.741.483v-.874Z"
      transform="translate(-829.541 -312.153)"/>
  </g>
  <g transform="translate(8.563 10.027)">
    <path
      d="M835.682,312.153v.874l-.814-.483-.434.734.862.5-.862.569.434.71.814-.532v.966h.8v-.966l.8.446.41-.709-.813-.484.813-.5-.464-.734-.741.483v-.874Z"
      transform="translate(-834.434 -312.153)"/>
  </g>
  <g transform="translate(17.059 10.027)">
    <path
      d="M825.895,312.153v.874l-.814-.483-.434.734.863.5-.863.569.434.71.814-.532v.966h.8v-.966l.795.446.411-.709-.814-.484.814-.5-.465-.734-.74.483v-.874Z"
      transform="translate(-824.647 -312.153)"/>
  </g>
  <path
    d="M823.674,317.764h12.884a2.677,2.677,0,0,0,2.674-2.674v-4.2a2.677,2.677,0,0,0-2.674-2.674H823.674A2.677,2.677,0,0,0,821,310.889v4.2A2.677,2.677,0,0,0,823.674,317.764Zm12.884-7.813a.938.938,0,0,1,.938.938v4.2a.938.938,0,0,1-.938.938H823.674a.938.938,0,0,1-.938-.937v-4.2a.938.938,0,0,1,.938-.938Z"
    transform="translate(-815.758 -301.196)"/>
</svg>
