<svg width="16" height="13" viewBox="0 0 16 13" xmlns="http://www.w3.org/2000/svg">
<path d="M14.4 3.25H1.6V1.625H14.4V3.25ZM14.4 11.375H1.6V6.5H14.4V11.375ZM14.4 1.2889e-10H1.6C1.39026
-2.68942e-06 1.18259 0.0420866 0.988914 0.12385C0.795241 0.205613 0.619384 0.325438 0.471448
0.476441C0.323512 0.627443 0.206413 0.806646 0.12688 1.00375C0.0473464 1.20086 0.00694603 1.41199
0.00799999 1.625L0 11.375C0 11.806 0.168571 12.2193 0.468629 12.524C0.768687 12.8288 1.17565 13 1.6
13H14.4C14.8243 13 15.2313 12.8288 15.5314 12.524C15.8314 12.2193 16 11.806 16 11.375V1.625C16 1.19402
15.8314 0.780698 15.5314 0.475951C15.2313 0.171205 14.8243 1.28892e-10 14.4 1.2889e-10Z"/>
</svg>
