<svg width="16" height="16" viewBox="0 0 16 16" fill="none" xmlns="http://www.w3.org/2000/svg">
  <path
    d="M11.3333 0C10.138 0 9.05467 0.224 8.208 0.646C7.362 1.068 6.66667 1.75533 6.66667 2.66667V5.33333C6.66667 5.41933 6.69533 5.50267 6.70867 5.58333C6.04135 5.41376 5.35518 5.32976 4.66667 5.33333C3.47133 5.33333 2.388 5.55733 1.54133 5.97933C0.695333 6.40133 0 7.08867 0 8V13.3333C0 14.2447 0.695333 14.932 1.542 15.354C2.388 15.776 3.47133 16 4.66667 16C5.862 16 6.94533 15.776 7.792 15.354C8.63733 14.932 9.33333 14.2447 9.33333 13.3333V13.0627C9.9855 13.239 10.6578 13.33 11.3333 13.3333C12.5287 13.3333 13.612 13.1093 14.4587 12.6873C15.304 12.2653 16 11.578 16 10.6667V2.66667C16 1.75533 15.3047 1.068 14.458 0.646C13.6127 0.224 12.5293 0 11.3333 0ZM11.3333 1.33333C12.3487 1.33333 13.2527 1.552 13.854 1.854C14.456 2.156 14.6667 2.474 14.6667 2.66667C14.6667 2.86 14.456 3.17733 13.854 3.47933C13.2533 3.78133 12.3487 4 11.3333 4C10.318 4 9.414 3.78133 8.81267 3.47933C8.21067 3.17733 8 2.85933 8 2.66667C8 2.47333 8.21067 2.156 8.81267 1.854C9.41333 1.552 10.318 1.33333 11.3333 1.33333ZM8 4.56267C8.07 4.60133 8.13533 4.65133 8.20867 4.68733C9.05467 5.10933 10.138 5.33333 11.3333 5.33333C12.5287 5.33333 13.612 5.10933 14.4587 4.68733C14.5313 4.65133 14.5967 4.60133 14.6667 4.56267V5.33333C14.6667 5.52667 14.456 5.844 13.854 6.146C13.2527 6.448 12.3487 6.66667 11.3333 6.66667C10.318 6.66667 9.414 6.448 8.81267 6.146C8.21067 5.844 8 5.526 8 5.33333V4.56267ZM4.66667 6.66667C5.682 6.66667 6.586 6.88533 7.18733 7.18733C7.78933 7.48933 8 7.80733 8 8C8 8.19333 7.78933 8.51067 7.18733 8.81267C6.586 9.11467 5.682 9.33333 4.66667 9.33333C3.65133 9.33333 2.74733 9.11467 2.146 8.81267C1.544 8.51067 1.33333 8.19267 1.33333 8C1.33333 7.80667 1.544 7.48933 2.146 7.18733C2.74667 6.88533 3.65133 6.66667 4.66667 6.66667ZM14.6667 7.22933V8C14.6667 8.19333 14.456 8.51067 13.854 8.81267C13.2527 9.11467 12.3487 9.33333 11.3333 9.33333C10.6542 9.33702 9.97892 9.23145 9.33333 9.02067V8C9.33333 7.914 9.30467 7.83067 9.29133 7.75C9.91133 7.91133 10.5987 8 11.3333 8C12.5287 8 13.612 7.776 14.4587 7.354C14.5313 7.318 14.5967 7.268 14.6667 7.22933ZM1.33333 9.896C1.40333 9.93467 1.46867 9.98467 1.542 10.0207C2.388 10.4427 3.47133 10.6667 4.66667 10.6667C5.862 10.6667 6.94533 10.4427 7.792 10.0207C7.86467 9.98467 7.93 9.93467 8 9.896V10.6667C8 10.86 7.78933 11.1773 7.18733 11.4793C6.586 11.7813 5.682 12 4.66667 12C3.65133 12 2.74733 11.7813 2.146 11.4793C1.544 11.1773 1.33333 10.8593 1.33333 10.6667V9.896ZM14.6667 9.896V10.6667C14.6667 10.86 14.456 11.1773 13.854 11.4793C13.2527 11.7813 12.3487 12 11.3333 12C10.5753 12 9.89067 11.8933 9.33333 11.708V10.4167C9.94533 10.578 10.612 10.6667 11.3333 10.6667C12.5287 10.6667 13.612 10.4427 14.4587 10.0207C14.5313 9.98467 14.5967 9.93467 14.6667 9.896ZM1.33333 12.5627C1.40333 12.6013 1.46867 12.6513 1.542 12.6873C2.388 13.1093 3.47133 13.3333 4.66667 13.3333C5.862 13.3333 6.94533 13.1093 7.792 12.6873C7.86467 12.6513 7.93 12.6013 8 12.5627V13.3333C8 13.5267 7.78933 13.844 7.18733 14.146C6.586 14.448 5.682 14.6667 4.66667 14.6667C3.65133 14.6667 2.74733 14.448 2.146 14.146C1.544 13.844 1.33333 13.526 1.33333 13.3333V12.5627Z"
    fill="#3E3E3E"/>
</svg>
