<svg width="16" height="23" viewBox="0 0 16 23" fill="none" xmlns="http://www.w3.org/2000/svg">
  <path
    d="M7.99024 0C9.69194 0.00168098 11.3488 0.545943 12.72 1.5537C14.0912 2.56146 15.1053 3.9802 15.615 5.60377C16.1247 7.22734 16.1035 8.97115 15.5543 10.5818C15.0051 12.1924 13.9566 13.586 12.5612 14.56V17.143C12.5612 17.4461 12.4408 17.7369 12.2265 17.9512C12.0121 18.1656 11.7214 18.286 11.4182 18.286H4.56124C4.25809 18.286 3.96737 18.1656 3.75301 17.9512C3.53866 17.7369 3.41824 17.4461 3.41824 17.143V14.558C2.02364 13.5837 0.975963 12.1901 0.427363 10.5798C-0.121237 8.96939 -0.142191 7.22607 0.367545 5.60299C0.877281 3.97991 1.89116 2.56158 3.26194 1.55401C4.63271 0.546432 6.28899 0.00207629 7.99024 0V0ZM4.56124 21.712V20.57H11.4182V21.713C11.4182 22.0161 11.2978 22.3069 11.0835 22.5212C10.8691 22.7356 10.5784 22.856 10.2752 22.856H5.70424C5.55405 22.856 5.40534 22.8264 5.2666 22.7689C5.12786 22.7114 5.00181 22.6271 4.89566 22.5209C4.78951 22.4146 4.70534 22.2885 4.64796 22.1497C4.59057 22.0109 4.56111 21.8622 4.56124 21.712ZM7.99024 2.286C6.67722 2.28594 5.40423 2.738 4.38533 3.56616C3.36644 4.39432 2.66378 5.54807 2.39552 6.83338C2.12726 8.1187 2.30976 9.45719 2.91234 10.6238C3.51492 11.7903 4.50081 12.7139 5.70424 13.239V16H10.2752V13.239C11.4786 12.7139 12.4644 11.7905 13.067 10.624C13.6696 9.45751 13.8522 8.11913 13.5841 6.83387C13.3159 5.54861 12.6134 4.39487 11.5947 3.56663C10.576 2.73839 9.30316 2.28617 7.99024 2.286V2.286Z"
    fill="#3E3E3E"/>
</svg>
