<svg height="26.367" viewBox="0 0 24 26.367" width="24" xmlns="http://www.w3.org/2000/svg">
  <defs>
    <style>.a {
      fill: #3e3e3e;
    }</style>
  </defs>
  <path
    d="M163.723,161.778a2.774,2.774,0,0,1-2.026-.858,2.852,2.852,0,0,1-.858-2.094V138.295a2.932,2.932,0,0,1,2.884-2.884h12.3a2.846,2.846,0,0,1,2.094.859,2.763,2.763,0,0,1,.858,2.025v2.389h-2.952v-2.389h-12.3v20.6h12.3V156.5h2.952v2.322a2.929,2.929,0,0,1-2.952,2.952Zm21.116-13.184-5.905,5.837v-4.395H170.4v-2.884h8.531v-4.395Z"
    transform="translate(-160.839 -135.411)"/>
</svg>
