<svg height="24.545" viewBox="0 0 30 24.545" width="30" xmlns="http://www.w3.org/2000/svg">
  <defs>
    <style>.a {
      fill: #050708;
    }</style>
  </defs>
  <path
    d="M2.364,5.73,4.105,4l22.8,22.8-1.73,1.742-4.2-4.2A16.127,16.127,0,0,1,1,14.909a16.189,16.189,0,0,1,4.346-6.2ZM16,10.818a4.094,4.094,0,0,1,3.856,5.461L14.63,11.053A4.085,4.085,0,0,1,16,10.818Zm0-6.136A16.123,16.123,0,0,1,31,14.909a16.2,16.2,0,0,1-5.436,7.079l-1.953-1.953a13.38,13.38,0,0,0,4.412-5.125A13.389,13.389,0,0,0,11.7,8.119L9.587,6.01A16.037,16.037,0,0,1,16,4.682ZM3.977,14.909a13.391,13.391,0,0,0,14.78,7.214l-3.141-3.141a4.092,4.092,0,0,1-3.689-3.689L7.276,10.642A13.372,13.372,0,0,0,3.977,14.909Z"
    transform="translate(-1 -4)"/>
</svg>
