<svg width="16" height="12" viewBox="0 0 16 12" fill="none" xmlns="http://www.w3.org/2000/svg">
  <path
    d="M15.8727 3.072C11.4435 -1.02475 4.55473 -1.02325 0.127229 3.072C-0.0392713 3.226 -0.0425213 3.48675 0.118479 3.6465L0.974479 4.49575C1.12798 4.64825 1.37498 4.6515 1.53448 4.50525C5.18248 1.16325 10.817 1.1625 14.4657 4.50525C14.6252 4.6515 14.8722 4.648 15.0257 4.49575L15.8817 3.6465C16.0425 3.48675 16.0392 3.226 15.8727 3.072ZM7.99998 8C7.11623 8 6.39998 8.71626 6.39998 9.60001C6.39998 10.4838 7.11623 11.2 7.99998 11.2C8.88373 11.2 9.59998 10.4838 9.59998 9.60001C9.59998 8.71626 8.88373 8 7.99998 8ZM13.0667 5.91025C10.1852 3.362 5.81148 3.36475 2.93323 5.91025C2.76073 6.06275 2.75523 6.3275 2.91898 6.489L3.77998 7.33875C3.92998 7.48675 4.17148 7.49675 4.33123 7.35875C6.42998 5.5445 9.57473 5.5485 11.6685 7.35875C11.8282 7.49675 12.0697 7.487 12.2197 7.33875L13.0807 6.489C13.2447 6.3275 13.239 6.0625 13.0667 5.91025V5.91025Z"
    fill="black"/>
</svg>
