<svg height="24" viewBox="0 0 24 24" width="24" xmlns="http://www.w3.org/2000/svg">
  <defs>
    <style>.internet-icon {
      fill: #239df7;
    }</style>
  </defs>
  <g transform="translate(-145 -320)">
    <path class="internet-icon"
          d="M19.233,16.4A19.309,19.309,0,0,0,19.4,14a19.311,19.311,0,0,0-.167-2.4h4.051a9.283,9.283,0,0,1,0,4.8m-6.173,6.673A19.02,19.02,0,0,0,18.766,18.8H22.3A9.626,9.626,0,0,1,17.111,23.071Zm-.3-6.673H11.192A16.659,16.659,0,0,1,11,14a16.661,16.661,0,0,1,.192-2.4h5.615A16.66,16.66,0,0,1,17,14,16.659,16.659,0,0,1,16.806,16.4ZM14,23.555A16.75,16.75,0,0,1,11.706,18.8h4.585A16.727,16.727,0,0,1,14,23.555ZM9.231,9.2H5.692a9.6,9.6,0,0,1,5.194-4.276A18.993,18.993,0,0,0,9.231,9.2ZM5.692,18.8H9.231a19.014,19.014,0,0,0,1.655,4.276A9.6,9.6,0,0,1,5.692,18.8Zm-.979-2.4a9.352,9.352,0,0,1,0-4.8H8.765A19.309,19.309,0,0,0,8.6,14a19.307,19.307,0,0,0,.166,2.4M14,4.441A16.728,16.728,0,0,1,16.292,9.2H11.706A16.751,16.751,0,0,1,14,4.441ZM22.3,9.2H18.766a19.02,19.02,0,0,0-1.655-4.273A9.625,9.625,0,0,1,22.3,9.2ZM13.992,2A12,12,0,1,0,26,14,11.991,11.991,0,0,0,13.992,2Z"
          transform="translate(143 318.002)"/>
  </g>
</svg>
