<svg xmlns="http://www.w3.org/2000/svg" width="24" height="48" viewBox="0 0 24 48"><defs><style>.a{fill:#3e3e3e;}</style></defs><g transform="translate(-819.999 -425)"><g transform="translate(819.999 425)"><g transform="translate(0 0)"><path class="a" d="M243.4,500.262H226.364c-1.921,0-3.484-1.949-3.484-4.344V456.606c0-2.4,1.563-4.344,3.484-4.344H243.4c1.921,0,3.484,1.949,3.484,4.344v39.311C246.88,498.313,245.317,500.262,243.4,500.262ZM226.364,453.9a2.483,2.483,0,0,0-2.167,2.7v39.311a2.483,2.483,0,0,0,2.167,2.7H243.4a2.483,2.483,0,0,0,2.168-2.7V456.606a2.483,2.483,0,0,0-2.168-2.7Z" transform="translate(-222.88 -452.262)"/></g><g transform="translate(0 6.587)"><path class="a" d="M246.222,506.589H223.538a.75.75,0,0,1-.658-.815V473.854a.75.75,0,0,1,.658-.815h22.683a.75.75,0,0,1,.658.815v31.919A.75.75,0,0,1,246.222,506.589ZM224.2,504.958h21.367V474.67H224.2Z" transform="translate(-222.88 -473.039)"/></g><g transform="translate(8.6 3.318)"><path class="a" d="M265.017,464.359h-5.17a.815.815,0,0,1,0-1.631h5.17a.815.815,0,1,1,0,1.631Z" transform="translate(-259.031 -462.728)"/></g><g transform="translate(10.761 42.708)"><path class="a" d="M267.512,587.591h-.847a.815.815,0,1,1,0-1.631h.847a.815.815,0,1,1,0,1.631Z" transform="translate(-265.849 -585.96)"/></g></g></g></svg>