<svg height="35.628" viewBox="0 0 41.232 35.628" width="41.232" xmlns="http://www.w3.org/2000/svg">
  <defs>
    <style>.noon-a {
      fill: #ffdc49;
    }

    .noon-b {
      fill: none;
    }

    .noon-c {
      fill: #bdc3c7;
    }</style>
  </defs>
  <g transform="translate(-563.417 -352.167)">
    <path class="noon-a"
          d="M583.417,360.167a1.5,1.5,0,0,1-1.5-1.5v-5a1.5,1.5,0,0,1,3,0v5A1.5,1.5,0,0,1,583.417,360.167Z"/>
    <path class="noon-a"
          d="M570.335,386.748a1.5,1.5,0,0,1-1.061-2.56l3.536-3.537a1.5,1.5,0,0,1,2.121,2.121l-3.535,3.537A1.5,1.5,0,0,1,570.335,386.748Z"/>
    <path class="noon-a"
          d="M592.962,364.12a1.5,1.5,0,0,1-1.06-2.56l3.535-3.536a1.5,1.5,0,0,1,2.122,2.121l-3.536,3.536A1.5,1.5,0,0,1,592.962,364.12Z"/>
    <path class="noon-a"
          d="M573.87,364.121a1.493,1.493,0,0,1-1.06-.439l-3.536-3.536a1.5,1.5,0,0,1,2.121-2.121l3.536,3.536a1.5,1.5,0,0,1-1.061,2.56Z"/>
    <path class="noon-a" d="M569.917,373.667h-5a1.5,1.5,0,0,1,0-3h5a1.5,1.5,0,0,1,0,3Z"/>
    <path class="noon-b" d="M591.87,371.258h0a8.994,8.994,0,0,0-8.408-8.065A9.007,9.007,0,0,1,591.87,371.258Z"/>
    <path class="noon-b" d="M582.291,363.2a9,9,0,0,0-8.328,8.052A9.01,9.01,0,0,1,582.291,363.2Z"/>
    <path class="noon-b" d="M573.959,373.009a8.97,8.97,0,0,0,3.047,5.933l0,0A8.983,8.983,0,0,1,573.959,373.009Z"/>
    <path class="noon-a"
          d="M573.963,371.25a8.964,8.964,0,0,0-.046.917c0,.284.016.564.042.842-.026-.277-.042-.558-.042-.842A8.964,8.964,0,0,1,573.963,371.25Z"/>
    <path class="noon-a"
          d="M583.463,363.194c-.182-.011-.362-.027-.546-.027-.212,0-.418.017-.626.031.208-.014.415-.031.626-.031C583.1,363.167,583.281,363.183,583.463,363.194Z"/>
    <path class="noon-a"
          d="M577.008,378.939a5.9,5.9,0,0,1,2.146-2.106,5.995,5.995,0,1,1,8.936-7.69,6.808,6.808,0,0,1,3.78,2.115,9.007,9.007,0,0,0-8.407-8.064c-.182-.011-.362-.027-.546-.027-.211,0-.418.017-.626.031a8.981,8.981,0,0,0-8.374,8.969c0,.284.016.565.042.842A8.983,8.983,0,0,0,577.008,378.939Z"/>
    <path class="noon-c"
          d="M598.38,375.188a5.4,5.4,0,0,0-4.894-3.093,2.95,2.95,0,0,0-.916.078,6.741,6.741,0,0,0-12.459,3.573c0,.212.01.424.031.635a5.861,5.861,0,0,0,1.853,11.414h16.351a6.3,6.3,0,0,0,.034-12.607Zm-.034,9.723H581.979a2.975,2.975,0,0,1-.072-5.949,1.442,1.442,0,0,0,1.317-1.92,3.87,3.87,0,0,1,2.325-4.9,3.817,3.817,0,0,1,1.3-.23,3.872,3.872,0,0,1,3.618,2.49,1.44,1.44,0,0,0,1.958.806,2.529,2.529,0,0,1,3.54,1.8,1.44,1.44,0,0,0,1.7,1.131,3.619,3.619,0,0,1,.679-.068,3.42,3.42,0,1,1,0,6.839Z"/>
  </g>
</svg>
