<svg width="16" height="16" viewBox="0 0 16 16" fill="none" xmlns="http://www.w3.org/2000/svg">
  <path
    d="M11.2857 7.42855H8.57143V4.71427C8.57143 4.6357 8.50714 4.57141 8.42857 4.57141H7.57143C7.49285 4.57141 7.42857 4.6357 7.42857 4.71427V7.42855H4.71428C4.63571 7.42855 4.57143 7.49284 4.57143 7.57141V8.42855C4.57143 8.50713 4.63571 8.57141 4.71428 8.57141H7.42857V11.2857C7.42857 11.3643 7.49285 11.4286 7.57143 11.4286H8.42857C8.50714 11.4286 8.57143 11.3643 8.57143 11.2857V8.57141H11.2857C11.3643 8.57141 11.4286 8.50713 11.4286 8.42855V7.57141C11.4286 7.49284 11.3643 7.42855 11.2857 7.42855Z"
    fill="#3E3E3E"/>
  <path
    d="M8 0C3.58214 0 0 3.58214 0 8C0 12.4179 3.58214 16 8 16C12.4179 16 16 12.4179 16 8C16 3.58214 12.4179 0 8 0ZM8 14.6429C4.33214 14.6429 1.35714 11.6679 1.35714 8C1.35714 4.33214 4.33214 1.35714 8 1.35714C11.6679 1.35714 14.6429 4.33214 14.6429 8C14.6429 11.6679 11.6679 14.6429 8 14.6429Z"
    fill="#3E3E3E"/>
</svg>
