<svg height="20" viewBox="0 0 24.07 20" width="24.07" xmlns="http://www.w3.org/2000/svg">
  <g transform="translate(-824.228 -254.91)">
    <path
      d="M844.313,263.915v-6.983a2.007,2.007,0,0,0-2.022-2.022H826.25a2.007,2.007,0,0,0-2.022,2.022v12.042A2.008,2.008,0,0,0,826.25,271h11.075a5.619,5.619,0,1,0,6.987-7.082Zm-18.063-6.983h16.041v2.023H826.25Zm0,6.021h16.041v.738a5.618,5.618,0,0,0-5.216,5.283H826.25ZM842.679,273.3a4.014,4.014,0,1,1,4.014-4.014A4.018,4.018,0,0,1,842.679,273.3Z"
      transform="translate(0 0)"/>
    <g transform="translate(840.672 266.555)">
      <path
        d="M846.909,269.416h.675l-.285.706a1.679,1.679,0,0,1,.4.172l.353-.878h.676l-.539,1.34a1.494,1.494,0,0,1,.273.758h-.581l-.844,2.1a.764.764,0,0,0,.325-.237,1.316,1.316,0,0,0,.222-.488h.87a1.884,1.884,0,0,1-.584,1.118,1.7,1.7,0,0,1-1.163.43l-.182.453h-.669l.21-.53a1.674,1.674,0,0,1-.4-.162l-.279.692h-.67l.453-1.125a2.4,2.4,0,0,1-.442-1.511,2.307,2.307,0,0,1,.59-1.7,1.756,1.756,0,0,1,1.305-.519h.043Zm-1.012,1.756a1.856,1.856,0,0,0-.276,1.092q0,.171.015.32l.7-1.751A.886.886,0,0,0,845.9,271.172Zm1.465-.114a.746.746,0,0,0-.35-.222l-1.033,2.563a.907.907,0,0,0,.377.234l1.024-2.551Z"
        transform="translate(-844.711 -269.416)"/>
    </g>
  </g>
</svg>
