<svg height="15.999" viewBox="0 0 16 15.999" width="16" xmlns="http://www.w3.org/2000/svg">
  <defs>
    <style>.a {
      fill: #3e3e3e;
    }</style>
  </defs>
  <path
    d="M6.22,9.926a13.393,13.393,0,0,0,5.857,5.853l1.955-1.958a.891.891,0,0,1,.9-.218,10.214,10.214,0,0,0,3.175.5A.889.889,0,0,1,19,15v3.111A.889.889,0,0,1,18.11,19,15.111,15.111,0,0,1,3,3.887.889.889,0,0,1,3.888,3H7a.888.888,0,0,1,.889.889,10.214,10.214,0,0,0,.5,3.175.889.889,0,0,1-.217.9Z"
    transform="translate(-2.999 -2.998)"/>
</svg>
