<svg width="16" height="26" viewBox="0 0 16 26" fill="none" xmlns="http://www.w3.org/2000/svg">
  <path
    d="M13.714 20.57H2.285V4.57H13.714V20.57ZM13.714 0.00999999L2.285 0C1.67923 0.000264757 1.09834 0.240953 0.669907 0.6692C0.241472 1.09745 0.000529921 1.67823 0 2.284V22.855C0 23.4613 0.240846 24.0427 0.669554 24.4714C1.09826 24.9002 1.67971 25.141 2.286 25.141H13.714C14.3202 25.1407 14.9015 24.8998 15.3302 24.4712C15.7588 24.0425 15.9997 23.4612 16 22.855V2.284C15.9996 1.98447 15.9401 1.68797 15.825 1.41147C15.7098 1.13497 15.5412 0.883908 15.3288 0.672669C15.1165 0.46143 14.8645 0.294163 14.5874 0.180451C14.3103 0.0667389 14.0135 0.00881583 13.714 0.00999999V0.00999999Z"
    fill="#3E3E3E"/>
</svg>
