<svg height="31.158" viewBox="0 0 24.5 31.158" width="24.5" xmlns="http://www.w3.org/2000/svg">
  <path
    d="M2.656-.431A.841.841,0,0,0,3.5-1.258V-16.1l-.055-2,1.227,1.268L7.012-14.4a.794.794,0,0,0,.579.248.748.748,0,0,0,.772-.744.794.794,0,0,0-.248-.565L3.262-20.2a.8.8,0,0,0-.607-.276.8.8,0,0,0-.607.276L-2.8-15.457a.756.756,0,0,0-.262.565.74.74,0,0,0,.772.744A.824.824,0,0,0-1.7-14.4l2.343-2.44L1.87-18.1l-.055,2V-1.258A.841.841,0,0,0,2.656-.431Zm-7.94,10.615H10.582c2.688,0,4.067-1.379,4.067-4.025V-7.93c0-2.661-1.379-4.039-4.067-4.039H6.654v1.709h3.887a2.164,2.164,0,0,1,2.4,2.412V6.062a2.158,2.158,0,0,1-2.4,2.412h-15.8A2.143,2.143,0,0,1-7.642,6.062V-7.847A2.148,2.148,0,0,1-5.257-10.26h3.915v-1.709H-5.284c-2.688,0-4.067,1.365-4.067,4.039V6.158C-9.351,8.819-7.973,10.184-5.284,10.184Z"
    transform="translate(9.601 20.725)"/>
</svg>
