<svg width="15" height="15" viewBox="0 0 15 15" fill="none" xmlns="http://www.w3.org/2000/svg">
<path d="M13.5 4.5H1.5V3H13.5V4.5ZM12 0H3V1.5H12V0ZM15 7.5V13.5C15 13.8978 14.842 14.2794 14.5607 14.5607C14.2794 14.842 13.8978 15 13.5 15H1.5C1.10254 14.9988 0.721699 14.8404 0.440651 14.5593C0.159604 14.2783 0.00118705 13.8975 0 13.5V7.5C0.00118705 7.10254 0.159604 6.7217 0.440651 6.44065C0.721699 6.1596 1.10254 6.00119 1.5 6H13.5C13.8975 6.00119 14.2783 6.1596 14.5593 6.44065C14.8404 6.7217 14.9988 7.10254 15 7.5ZM8.94525 11.2815L10.6875 9.792L8.39325 9.6L7.5 7.5L6.60675 9.6L4.3125 9.792L6.05475 11.2815L5.52975 13.5L7.5 12.321L9.47025 13.5L8.94525 11.2815Z" fill="#3E3E3E"/>
</svg>
