<svg width="16" height="16" viewBox="0 0 16 16" fill="none" xmlns="http://www.w3.org/2000/svg">
  <path
    d="M3.22 6.926C4.50508 9.44669 6.55543 11.4956 9.077 12.779L11.032 10.821C11.1476 10.7057 11.2927 10.6243 11.4515 10.5859C11.6102 10.5475 11.7764 10.5534 11.932 10.603C12.9573 10.9362 14.0289 11.1049 15.107 11.103C15.2248 11.1025 15.3414 11.1253 15.4503 11.1703C15.5591 11.2152 15.658 11.2813 15.7411 11.3648C15.8241 11.4482 15.8898 11.5474 15.9343 11.6564C15.9787 11.7655 16.0011 11.8822 16 12V15.111C16 15.2278 15.977 15.3435 15.9322 15.4514C15.8875 15.5594 15.8219 15.6574 15.7393 15.74C15.6566 15.8225 15.5585 15.888 15.4505 15.9326C15.3425 15.9772 15.2268 16.0001 15.11 16C13.1255 15.9999 11.1605 15.6088 9.32712 14.8493C7.49375 14.0897 5.82795 12.9764 4.42485 11.573C3.02174 10.1696 1.90881 8.50363 1.14959 6.67011C0.390368 4.8366 -0.000262527 2.87149 1.3237e-07 0.887001C0.000529249 0.651743 0.0942878 0.426287 0.260734 0.260028C0.427181 0.093769 0.652742 0.000264601 0.888 5.6375e-07H4C4.11678 -0.000131022 4.23244 0.0227738 4.34036 0.0674036C4.44828 0.112033 4.54633 0.177512 4.62891 0.260089C4.71149 0.342667 4.77697 0.440722 4.8216 0.548639C4.86623 0.656557 4.88913 0.772218 4.889 0.889C4.88706 1.96709 5.05582 3.03869 5.389 4.064C5.43899 4.21948 5.44518 4.38571 5.4069 4.54448C5.36862 4.70324 5.28735 4.84839 5.172 4.964L3.22 6.926Z"
    fill="#3E3E3E"/>
</svg>
