<svg width="16" height="14" viewBox="0 0 16 14" fill="none" xmlns="http://www.w3.org/2000/svg">
  <path
    d="M14.545 10.182H1.455V1.455H14.545V10.182ZM14.545 0H1.455C1.06943 0.00105563 0.699963 0.154689 0.427326 0.427326C0.154689 0.699963 0.00105563 1.06943 0 1.455V10.182C0.00105563 10.5676 0.154689 10.937 0.427326 11.2097C0.699963 11.4823 1.06943 11.6359 1.455 11.637H5.091V13.092H10.909V11.636H14.545C14.9297 11.6344 15.298 11.4804 15.5693 11.2076C15.8405 10.9349 15.9925 10.5657 15.992 10.181L16 1.455C15.9989 1.06943 15.8453 0.699963 15.5727 0.427326C15.3 0.154689 14.9306 0.00105563 14.545 0Z"
    fill="#3E3E3E"/>
</svg>
