<svg width="16" height="17" viewBox="0 0 16 17" fill="none" xmlns="http://www.w3.org/2000/svg">
  <path
    d="M12.9351 1.60297L13.3878 4.46753L15.9926 5.79592L14.679 8.39332L16 10.9907L13.3729 12.3191L12.9202 15.1837L10.0334 14.731L7.97774 16.7792L5.91466 14.7013L3.05009 15.1763L2.58998 12.2894L0 10.9685L1.32096 8.37106L0.00742114 5.79592L2.61224 4.45269L3.06493 1.61039L5.93692 2.08534L8 0L10.0557 2.05566L12.9351 1.60297ZM6.14471 4.68275C5.84948 4.68275 5.56634 4.80003 5.35758 5.00879C5.14882 5.21755 5.03154 5.50069 5.03154 5.79592C5.03154 6.09115 5.14882 6.37429 5.35758 6.58305C5.56634 6.79181 5.84948 6.90909 6.14471 6.90909C6.43994 6.90909 6.72308 6.79181 6.93184 6.58305C7.1406 6.37429 7.25788 6.09115 7.25788 5.79592C7.25788 5.50069 7.1406 5.21755 6.93184 5.00879C6.72308 4.80003 6.43994 4.68275 6.14471 4.68275ZM9.85529 9.87755C9.56005 9.87755 9.27691 9.99483 9.06815 10.2036C8.85939 10.4124 8.74211 10.6955 8.74211 10.9907C8.74211 11.286 8.85939 11.5691 9.06815 11.7779C9.27691 11.9866 9.56005 12.1039 9.85529 12.1039C10.1505 12.1039 10.4337 11.9866 10.6424 11.7779C10.8512 11.5691 10.9685 11.286 10.9685 10.9907C10.9685 10.6955 10.8512 10.4124 10.6424 10.2036C10.4337 9.99483 10.1505 9.87755 9.85529 9.87755ZM5.33581 12.1039L11.7106 5.72913L10.6642 4.68275L4.28942 11.0575L5.33581 12.1039Z"
    fill="#3E3E3E"/>
</svg>
